<svg xmlns="http://www.w3.org/2000/svg" viewBox="0 0 512 512">
  <defs>
    <linearGradient id="grad" x1="0%" y1="0%" x2="100%" y2="100%">
      <stop offset="0%" style="stop-color:#4CAF50;stop-opacity:1" />
      <stop offset="100%" style="stop-color:#2E7D32;stop-opacity:1" />
    </linearGradient>
  </defs>
  <rect width="512" height="512" rx="100" fill="url(#grad)"/>
  <path d="M416 192c0-88.4-71.6-160-160-160S96 103.6 96 192c0 74.4 51 136.5 120 155v85H144v32h224v-32h-72v-85c69-18.5 120-80.6 120-155zM256 312c-66.3 0-120-53.7-120-120s53.7-120 120-120 120 53.7 120 120-53.7 120-120 120z" fill="#ffffff" opacity="0.3"/>
  <path d="M380 160H132c-11 0-20 9-20 20v190c0 11 9 20 20 20h248c11 0 20-9 20-20V180c0-11-9-20-20-20zm-16 170H148V196h216v134z" fill="#ffffff"/>
  <path d="M180 230h152v20H180zm0 40h152v20H180zm0 40h100v20H180z" fill="#E8F5E9"/>
</svg>
